<?xml version="1.0" encoding="UTF-8" standalone="no"?>
<!DOCTYPE svg PUBLIC "-//W3C//DTD SVG 1.1//EN"
"http://www.w3.org/Graphics/SVG/1.1/DTD/svg11.dtd">
<svg width="64px" height="64px"
xmlns="http://www.w3.org/2000/svg" version="1.1">
<g transform="translate(0000, 0000) scale(1.0000, 1.0000)">
<path fill="#0000cc" stroke="none" d="
M 0.00 32.00
L 0.00 0.00
L 32.00 0.00
L 64.00 0.00
L 64.00 32.00
L 64.00 64.00
L 32.00 64.00
L 0.00 64.00
L 0.00 32.00
M 24.49 39.04
L 21.98 36.53
L 13.28 45.23
L 4.58 53.93
L 6.99 56.49
L 9.40 59.06
L 18.20 50.30
L 27.00 41.54
L 24.49 39.04
M 43.89 47.00
C 44.46 47.00 46.54 48.41 48.50 50.13
C 53.11 54.18 54.18 53.11 50.13 48.50
C 48.41 46.54 47.00 44.46 47.00 43.89
C 47.00 43.32 49.54 40.19 52.63 36.95
C 59.31 29.95 58.45 28.71 48.81 31.39
C 41.93 33.31 42.58 33.58 33.74 25.08
L 27.98 19.55
L 23.79 23.74
L 19.60 27.93
L 26.30 34.87
C 29.99 38.68 33.00 42.08 33.00 42.42
C 33.00 42.75 32.26 45.68 31.36 48.93
C 28.71 58.45 29.97 59.29 36.95 52.63
C 40.19 49.54 43.32 47.00 43.89 47.00
M 56.49 7.04
L 53.98 4.53
L 45.28 13.23
L 36.58 21.93
L 38.99 24.49
L 41.40 27.06
L 50.20 18.30
L 59.00 9.54
L 56.49 7.04"/>
<path fill="#ed6647" stroke="none" d="
M 6.99 56.49
L 4.58 53.93
L 13.28 45.23
L 21.98 36.53
L 24.49 39.04
L 27.00 41.54
L 18.20 50.30
L 9.40 59.06
L 6.99 56.49"/>
<path fill="#ed6647" stroke="none" d="
M 30.38 56.55
C 30.02 55.60 30.46 52.17 31.36 48.93
C 32.26 45.68 33.00 42.75 33.00 42.42
C 33.00 42.08 29.99 38.68 26.30 34.87
L 19.60 27.93
L 23.79 23.74
L 27.98 19.55
L 33.74 25.08
C 42.58 33.58 41.93 33.31 48.81 31.39
C 58.45 28.71 59.31 29.95 52.63 36.95
C 49.54 40.19 47.00 43.32 47.00 43.89
C 47.00 44.46 48.41 46.54 50.13 48.50
C 54.18 53.11 53.11 54.18 48.50 50.13
C 46.54 48.41 44.46 47.00 43.89 47.00
C 43.32 47.00 40.19 49.54 36.95 52.63
C 32.05 57.31 30.93 57.97 30.38 56.55"/>
<path fill="#ed6647" stroke="none" d="
M 38.99 24.49
L 36.58 21.93
L 45.28 13.23
L 53.98 4.53
L 56.49 7.04
L 59.00 9.54
L 50.20 18.30
L 41.40 27.06
L 38.99 24.49"/>
</g>
</svg>
